# xmcd
#
# Track frame offsets:
#	150
#	13837
#	26409
#	40597
#	55830
#	70611
#	84807
#	98999
#	112131
#	126437
#	141243
#	154727
#	169971
#	185827
#	199082
#	214296
#	233367
#	251797
#	269094
#
# Disc length: 3818 seconds
#
# Revision: 0
# Processed by: cddbd v1.5.2PL0 Copyright (c) Steve Scherf et al.
# Submitted via: EZCDAudioConverter 4.0.5.1
#
DISCID=140ee813
DTITLE=Various Artist - ERG MUSIC NU COUNTRY TRAXX VOL 247 US
DYEAR=2019
DGENRE=COUNTRY
TTITLE0=Sam Hunt - Kinfolks\n
TTITLE1=Dan and Shay and Justin Bieber\n - 10,000 Hours
TTITLE2=Luke Bryan\n - What She Wants Tonight
TTITLE3=Hootie and the Blowfish\n - Hold On
TTITLE4=Lainey Wilson\n - Dirty Looks
TTITLE5=Chris Lane\n - Big, Big Plans
TTITLE6=Runaway June\n - Head Over Heels
TTITLE7=Dillon Carmichael\n - I Do For You
TTITLE8=Keith Urban ft. Eric Church\n - We Were [Remix]
TTITLE9=Mags\n - Emotional Honesty
TTITLE10=Jess Moskaluke\n - Country Girls
TTITLE11=Jagertown\n - Falling On The Blacktop
TTITLE12=Bailey Callahan\n - Sweet Tea
TTITLE13=Runnin' Shine\n - Shotgun
TTITLE14=Paige King Johnson\n - Water Down The Whiskey
TTITLE15=TJ Harris\n - Living It Up
TTITLE16=Clare Dunn\n - Step Into Christmas
TTITLE17=Maddie and Tae\n - Have Yourself A Merry Little Christmas
TTITLE18=Kacey Musgraves ft. Leon Bridges\n - Present Without A Bow [2019 mix]
EXTD=
EXTT0=
EXTT1=
EXTT2=
EXTT3=
EXTT4=
EXTT5=
EXTT6=
EXTT7=
EXTT8=
EXTT9=
EXTT10=
EXTT11=
EXTT12=
EXTT13=
EXTT14=
EXTT15=
EXTT16=
EXTT17=
EXTT18=
PLAYORDER=
